<svg width="105" height="97" viewBox="0 0 105 97" fill="none" xmlns="http://www.w3.org/2000/svg">
<path d="M39.1282 40.5644C39.5645 40.1074 39.5235 39.3775 39.0389 38.9715C35.5068 36.0063 22.1816 24.7228 17.339 19.1773C11.7326 12.7604 2.61544 0 2.61544 0C2.61544 0 -0.44913 7.08893 3.06315 12.9089C6.57544 18.7289 16.5895 29.7732 16.5895 29.7732C16.5895 29.7732 9.48982 26.1163 5.82736 23.1313C2.16489 20.1464 0 17.9833 0 17.9833C0 17.9833 0.223857 26.7883 6.72562 31.3407C13.2274 35.8931 17.7116 38.8767 17.7116 38.8767C17.7116 38.8767 12.8533 37.7577 8.44421 35.4447C4.03509 33.1317 1.94245 30.7437 1.94245 30.7437C1.94245 30.7437 2.8393 41.9366 10.9846 44.176C19.1298 46.4155 19.4288 46.9375 19.4288 46.9375L10.3867 47.3845C10.3867 47.3845 13.7502 52.8324 18.9811 53.056C24.2119 53.2795 25.9305 51.9369 25.9305 51.9369C24.4046 54.0179 22.6917 55.8075 20.6997 57.1599C20.6997 57.1599 25.259 59.8464 28.1734 59.3244C31.0877 58.8024 32.3586 57.4584 32.3586 57.4584C32.7964 59.4828 32.0979 61.0602 30.5649 62.3093C33.6649 63.5415 36.6643 62.1466 39.3648 59.381C41.3823 62.8512 43.5075 63.7594 45.7164 64.7298C48.567 65.9832 50.0532 69.7845 49.7897 73.7639C49.4624 78.7054 47.3046 83.8746 47.3046 83.8746C47.3046 83.8746 56.1229 72.0098 50.3692 59.1008C44.6141 46.1919 35.7221 51.9369 35.7221 51.9369L35.4232 53.411C35.4232 53.411 32.0597 54.2513 32.5839 50.9679C33.1081 47.6844 34.7516 46.9389 34.7516 46.9389C34.7516 46.9389 34.3776 44.6259 36.4702 42.9835C37.6108 42.0894 38.5289 41.1953 39.1282 40.5658V40.5644Z" fill="white"/>
<path d="M35.47 46.6189C35.47 46.6189 35.946 46.6472 36.619 46.3954C37.292 46.1436 38.3008 45.3599 38.3008 45.3599C38.3008 45.3599 36.8429 47.2343 36.5638 47.3192C36.2846 47.4041 35.6952 47.5427 35.4714 46.6189H35.47Z" fill="white"/>
<path d="M56.2745 61.7109C56.2745 61.7109 59.7868 54.4735 60.3096 50.2195C60.8324 45.9656 59.7868 42.5336 63.897 40.0707C68.0072 37.6077 78.3202 28.5043 82.5054 24.1768C86.6907 19.8493 102.31 0 102.31 0C102.31 0 103.505 10.1489 100.217 15.5204C96.9286 20.8919 89.0072 29.3998 89.0072 29.3998C89.0072 29.3998 98.2746 23.7283 100.74 21.4903C103.205 19.2523 105 17.6848 105 17.6848C105 17.6848 102.983 28.5793 97.5265 32.0862C92.0703 35.5932 88.0353 38.8017 88.0353 38.8017C88.0353 38.8017 96.6297 35.3697 99.0963 33.6523C101.563 31.9349 103.207 30.8541 103.207 30.8541C103.207 30.8541 101.712 39.7707 95.1349 43.0542C88.5581 46.3377 84.897 47.3774 84.897 47.3774L94.9111 46.8597C94.9111 46.8597 90.5019 53.0531 85.57 52.9046C80.6381 52.756 79.0682 52.5311 79.0682 52.5311C79.0682 52.5311 80.563 55.2176 82.2816 56.2616C84.0002 57.3056 84.4493 57.2321 84.4493 57.2321C84.4493 57.2321 79.0682 60.0671 76.603 59.3215C74.1377 58.576 72.2689 57.4556 72.2689 57.4556C72.2689 57.4556 71.6711 59.6936 72.9419 61.1861L74.2128 62.6786C74.2128 62.6786 69.5047 63.7226 67.7861 61.933C66.0676 60.1421 65.3946 58.6496 65.3946 58.6496C65.3946 58.6496 63.0781 63.649 59.7896 64.843C56.5012 66.037 54.3335 66.484 54.3335 66.484L56.276 61.7081L56.2745 61.7109Z" fill="#E1A101"/>
<path d="M29.8185 64.3972L21.9722 86.4845H50.9687L43.7939 82.0821L32.6592 82.0071L38.862 64.3972H29.8185Z" fill="white"/>
<path d="M62.1781 64.3972L53.136 89.4695L63.449 86.4845L69.2778 69.3217L79.6658 69.2467L78.6202 71.7832L66.7204 74.8432L66.4016 75.8136L76.6027 78.2016L75.0329 81.9321L66.7204 82.0071L65.3928 86.4845H82.5065L85.795 77.3811L81.162 75.4416L87.515 72.9051L89.4574 66.4881C89.4574 66.4881 88.7845 64.3986 86.3192 64.3986H62.1809L62.1781 64.3972Z" fill="white"/>
<path d="M1.66211 96.6889L2.43002 95.7H4.22654L4.54108 94.5046H2.75306C2.47678 94.5046 2.30818 94.274 2.38468 93.9911L2.92166 91.9978C3.02083 91.6215 3.40479 91.323 3.78166 91.323H6.70597L5.94656 92.3119H3.65132L4.07353 92.5566L3.81992 93.5073H5.60794C5.8913 93.5073 6.05282 93.7378 5.97631 94.0208L5.44642 96.0141C5.33874 96.3904 4.96329 96.6889 4.58641 96.6889H1.66211Z" fill="white"/>
<path d="M7.07581 91.323H10.0001C10.377 91.323 10.5909 91.6215 10.4918 91.9978L10.0001 93.8227C9.90094 94.199 9.51699 94.5046 9.14011 94.5046H7.02906L7.45835 94.7493L6.93697 96.6889H5.63208L7.07581 91.323ZM7.78989 93.5073H8.78024L9.10328 92.3119H8.11292L7.78989 93.5073Z" fill="white"/>
<path d="M9.70796 96.0141L10.7833 91.9978C10.8825 91.6215 11.2665 91.323 11.6433 91.323H13.8932C14.2701 91.323 14.484 91.6215 14.3849 91.9978L13.3095 96.0141C13.2018 96.3904 12.8264 96.6889 12.4495 96.6889H10.1996C9.82414 96.6889 9.60029 96.3904 9.70796 96.0141ZM12.0882 95.7L12.9936 92.3119H11.5116L11.9338 92.5566L11.0964 95.7H12.0868H12.0882Z" fill="white"/>
<path d="M15.0211 91.323H17.9454C18.3223 91.323 18.5362 91.6215 18.437 91.9978L17.9454 93.8227C17.8533 94.1679 17.5232 94.4593 17.1704 94.4975V94.5046L17.1775 96.6889H15.8258L15.8102 94.5046H14.9729L15.4022 94.7493L14.8808 96.6889H13.5759L15.0197 91.323H15.0211ZM16.7255 93.5073L17.0485 92.3119H16.0582L15.7352 93.5073H16.7255Z" fill="white"/>
<path d="M18.4143 96.6889L19.5888 92.3119H18.437L18.7062 91.323H22.3063L21.5469 92.3119H20.395L20.8243 92.5566L19.7192 96.6889H18.4143Z" fill="white"/>
<path d="M20.8796 96.6889L21.6476 95.7H23.4441L23.7586 94.5046H21.9706C21.6943 94.5046 21.5257 94.274 21.6022 93.9911L22.1392 91.9978C22.2384 91.6215 22.6223 91.323 22.9992 91.323H25.9235L25.1641 92.3119H22.8688L23.2911 92.5566L23.0374 93.5073H24.8255C25.1088 93.5073 25.2703 93.7378 25.1938 94.0208L24.6639 96.0141C24.5563 96.3904 24.1808 96.6889 23.8039 96.6889H20.8796Z" fill="white"/>
<path d="M27.2128 96.0141L28.2882 91.9978C28.3874 91.6215 28.7713 91.323 29.1482 91.323H31.3981C31.775 91.323 31.9889 91.6215 31.8898 91.9978L31.5752 93.1635H30.2703L30.5013 92.3133H29.0193L29.4415 92.558L28.6042 95.7014H29.5945L29.817 94.8512H31.1218L30.8144 96.0169C30.7067 96.3932 30.3313 96.6917 29.9544 96.6917H27.7045C27.329 96.6917 27.1052 96.3932 27.2128 96.0169V96.0141Z" fill="white"/>
<path d="M31.1826 96.0141L32.2579 91.9978C32.3571 91.6215 32.7411 91.323 33.1179 91.323H35.3678C35.7447 91.323 35.9587 91.6215 35.8595 91.9978L34.7841 96.0141C34.6764 96.3904 34.301 96.6889 33.9241 96.6889H31.6742C31.2988 96.6889 31.0749 96.3904 31.1826 96.0141ZM33.5614 95.7L34.4667 92.3119H32.9848L33.407 92.5566L32.5696 95.7H33.56H33.5614Z" fill="white"/>
<path d="M36.4957 91.323H38.0996L38.1067 94.8031L39.9953 91.323H41.5538L40.11 96.6889H38.8051L39.488 94.1523L38.1137 96.6889H37.0851L37.078 94.0066L36.3569 96.6889H35.052L36.4957 91.323Z" fill="white"/>
<path d="M42.0226 91.323H44.9469C45.3238 91.323 45.5377 91.6215 45.4385 91.9978L44.9469 93.8227C44.8477 94.199 44.4638 94.5046 44.0869 94.5046H41.9758L42.4051 94.7493L41.8837 96.6889H40.5789L42.0226 91.323ZM42.7367 93.5073H43.727L44.0501 92.3119H43.0597L42.7367 93.5073Z" fill="white"/>
<path d="M44.4795 96.6889L45.739 91.9978C45.8382 91.6215 46.2222 91.323 46.599 91.323H49.5234L48.0796 96.6889H46.7747L47.2961 94.7493L47.8572 94.5046H46.3681L45.7844 96.6889H44.4795ZM46.6373 93.5073H47.6277L47.9507 92.3119H46.9603L46.6373 93.5073Z" fill="white"/>
<path d="M48.5485 96.6889L49.9923 91.323H51.5734L51.5805 93.9373L52.2861 91.323H53.591L52.1472 96.6889H50.5661L50.5505 94.0745L49.852 96.6889H48.5471H48.5485Z" fill="white"/>
<path d="M53.7767 95.5302L53.7612 91.3215H55.1128L55.1199 92.9626L56.0111 91.3215H57.3627L55.083 95.5302L54.7756 96.6874H53.4707L53.7782 95.5302H53.7767Z" fill="white"/>
<path d="M59.5883 96.6889H58.2834L59.7272 91.323H61.0321L59.5883 96.6889Z" fill="white"/>
<path d="M60.0488 96.6889L61.4925 91.323H63.0737L63.0808 93.9373L63.7863 91.323H65.0912L63.6475 96.6889H62.0663L62.0507 94.0745L61.3522 96.6889H60.0474H60.0488Z" fill="white"/>
<path d="M64.9709 96.6889L66.1455 92.3119H64.9936L65.2628 91.323H68.8629L68.1035 92.3119H66.9517L67.3809 92.5566L66.2758 96.6889H64.9709Z" fill="white"/>
<path d="M67.711 96.0141L68.9705 91.323H71.8948C72.2703 91.323 72.4857 91.6215 72.3865 91.9978L72.0719 93.1635H70.7671L70.998 92.3133H70.0077L69.6846 93.5087H70.675L69.9156 94.5046H68.9252L69.3545 94.7493L69.1009 95.7H70.0912L70.3137 94.8498H71.6186L71.1269 96.6889H68.2026C67.8258 96.6889 67.6033 96.3904 67.711 96.0141Z" fill="white"/>
<path d="M72.963 91.323H75.8873C76.2641 91.323 76.4781 91.6215 76.3789 91.9978L75.8873 93.8227C75.7952 94.1679 75.4651 94.4593 75.1123 94.4975V94.5046L75.1194 96.6889H73.7677L73.7521 94.5046H72.9148L73.3441 94.7493L72.8227 96.6889H71.5178L72.9616 91.323H72.963ZM74.6674 93.5073L74.9904 92.3119H74.0001L73.6771 93.5073H74.6674Z" fill="white"/>
<path d="M76.9472 91.323H78.551L78.5581 94.8031L80.4467 91.323H82.0052L80.5614 96.6889H79.2566L79.9395 94.1523L78.5652 96.6889H77.5366L77.5295 94.0066L76.8083 96.6889H75.5034L76.9472 91.323Z" fill="white"/>
<path d="M81.209 96.0141L82.4686 91.323H85.3929C85.7684 91.323 85.9837 91.6215 85.8845 91.9978L85.57 93.1635H84.2651L84.4961 92.3133H83.5057L83.1827 93.5087H84.173L83.4136 94.5046H82.4233L82.8526 94.7493L82.5989 95.7H83.5893L83.8117 94.8498H85.1166L84.625 96.6889H81.7007C81.3238 96.6889 81.1014 96.3904 81.209 96.0141Z" fill="white"/>
<path d="M86.4596 91.323H89.3839C89.7608 91.323 89.9747 91.6215 89.8755 91.9978L88.8002 96.0141C88.6925 96.3904 88.317 96.6889 87.9402 96.6889H85.0159L86.4596 91.323ZM86.5899 95.7H87.5803L88.4856 92.3119H87.0037L87.4259 92.5566L86.5885 95.7H86.5899Z" fill="white"/>
<path d="M90.3757 96.6889H89.0708L90.5145 91.323H91.8194L90.3757 96.6889Z" fill="white"/>
<path d="M90.8276 96.6889L92.0872 91.9978C92.1878 91.6215 92.5703 91.323 92.9472 91.323H95.8715L94.4278 96.6889H93.1229L93.6443 94.7493L94.2053 94.5046H92.7163L92.1325 96.6889H90.8276ZM92.9854 93.5073H93.9758L94.2988 92.3119H93.3085L92.9854 93.5073Z" fill="white"/>
<path d="M96.3404 91.323H99.2647C99.6416 91.323 99.8555 91.6215 99.7564 91.9978L99.2647 93.8227C99.1726 94.1679 98.8425 94.4593 98.4897 94.4975V94.5046L98.4968 96.6889H97.1452L97.1296 94.5046H96.2922L96.7215 94.7493L96.2001 96.6889H94.8953L96.339 91.323H96.3404ZM98.0448 93.5073L98.3679 92.3119H97.3775L97.0545 93.5073H98.0448Z" fill="white"/>
<path d="M100.041 95.5302L100.026 91.3215H101.377L101.384 92.9626L102.275 91.3215H103.627L101.347 95.5302L101.04 96.6874H99.7351L100.043 95.5302H100.041Z" fill="white"/>
</svg>
